<svg xmlns="http://www.w3.org/2000/svg" viewBox="0 0 1600 900" role="img" aria-labelledby="title desc">
  <title id="title">Meditation hero image placeholder</title>
  <desc id="desc">A calm sunrise landscape with a meditating figure representing pranayama and inner peace.</desc>
  <defs>
    <linearGradient id="sky" x1="0" y1="0" x2="0" y2="1">
      <stop offset="0%" stop-color="#f8d6a1"/>
      <stop offset="55%" stop-color="#f5b96e"/>
      <stop offset="100%" stop-color="#6e8d62"/>
    </linearGradient>
  </defs>
  <rect width="1600" height="900" fill="url(#sky)"/>
  <circle cx="1180" cy="230" r="92" fill="#fff3cf" opacity="0.9"/>
  <path d="M0 640C180 580 330 600 460 650S760 760 980 680 1310 540 1600 620V900H0Z" fill="#899f74" opacity="0.95"/>
  <path d="M0 710C170 660 390 700 610 770S1120 850 1600 740V900H0Z" fill="#486a54" opacity="0.88"/>
  <circle cx="540" cy="470" r="48" fill="#5a3a20"/>
  <path d="M500 535c22-30 66-30 88 0l35 150H468Z" fill="#5a3a20"/>
  <path d="M448 650c56-20 148-20 206 0" stroke="#5a3a20" stroke-width="26" stroke-linecap="round" fill="none"/>
  <path d="M436 592c-56 26-90 60-108 112" stroke="#5a3a20" stroke-width="20" stroke-linecap="round" fill="none"/>
  <path d="M664 592c56 26 90 60 108 112" stroke="#5a3a20" stroke-width="20" stroke-linecap="round" fill="none"/>
</svg>
